M48
;DRILL file {KiCad no-vcs-found-7434~57~ubuntu16.04.1} date Sun Jan 15 22:22:25 2017
;FORMAT={-:-/ absolute / metric / decimal}
FMAT,2
METRIC,TZ
T1C0.500
T2C1.000
T3C1.016
T4C1.100
T5C3.200
%
G90
G05
M71
T1
X52.324Y-93.472
X52.324Y-100.584
X55.88Y-93.472
X55.88Y-100.584
X57.912Y-53.848
X58.928Y-67.31
X59.69Y-63.5
X59.944Y-131.318
X60.452Y-87.63
X61.976Y-89.154
X62.992Y-77.724
X63.754Y-93.98
X64.262Y-117.602
X64.262Y-122.428
X65.278Y-89.662
X66.04Y-128.27
X66.294Y-67.31
X66.294Y-106.934
X66.294Y-110.49
X66.548Y-91.948
X66.548Y-96.266
X68.072Y-89.662
X68.58Y-110.49
X68.58Y-128.27
X69.342Y-76.2
X70.483Y-60.148
X70.483Y-61.164
X70.483Y-62.18
X70.483Y-63.196
X71.12Y-128.27
X71.499Y-60.148
X71.499Y-61.164
X71.499Y-62.18
X71.499Y-63.196
X71.882Y-117.602
X71.882Y-122.428
X73.152Y-96.266
X73.66Y-128.27
X74.422Y-67.31
X75.438Y-106.934
X76.454Y-108.712
X76.962Y-112.522
X76.981Y-74.187
X77.197Y-120.377
X77.724Y-106.934
X78.994Y-67.31
X79.248Y-113.284
X79.248Y-123.698
X79.502Y-86.36
X80.518Y-112.014
X81.026Y-71.882
X81.026Y-103.378
X81.768Y-108.692
X83.566Y-69.342
X83.801Y-110.725
X84.836Y-76.708
T2
X88.9Y-114.3
X88.9Y-116.84
X88.9Y-119.38
X88.9Y-121.92
X88.9Y-124.46
X88.9Y-127.
T3
X88.9Y-60.452
X88.9Y-62.992
X88.9Y-65.532
X88.9Y-68.072
X88.9Y-73.025
X88.9Y-75.565
X88.9Y-78.105
X88.9Y-80.645
T4
X52.07Y-118.11
X52.07Y-122.61
X58.57Y-118.11
X58.57Y-122.61
T5
X52.Y-53.
X52.Y-133.
X92.Y-53.
X92.Y-133.
T0
M30
