G04 #@! TF.GenerationSoftware,KiCad,Pcbnew,no-vcs-found-7434~57~ubuntu16.04.1*
G04 #@! TF.CreationDate,2017-01-15T22:22:22-08:00*
G04 #@! TF.ProjectId,indLight,696E644C696768742E6B696361645F70,rev?*
G04 #@! TF.FileFunction,Soldermask,Top*
G04 #@! TF.FilePolarity,Negative*
%FSLAX46Y46*%
G04 Gerber Fmt 4.6, Leading zero omitted, Abs format (unit mm)*
G04 Created by KiCad (PCBNEW no-vcs-found-7434~57~ubuntu16.04.1) date Sun Jan 15 22:22:22 2017*
%MOMM*%
%LPD*%
G01*
G04 APERTURE LIST*
%ADD10C,0.100000*%
%ADD11C,0.500000*%
%ADD12R,2.400000X4.200000*%
%ADD13R,2.400000X1.900000*%
%ADD14C,1.150000*%
%ADD15R,2.432000X2.127200*%
%ADD16O,2.432000X2.127200*%
%ADD17R,1.400000X1.400000*%
%ADD18R,1.960000X1.050000*%
%ADD19R,1.900000X1.650000*%
%ADD20R,1.050000X1.960000*%
%ADD21R,1.800000X3.960000*%
%ADD22C,3.600000*%
%ADD23C,2.400000*%
%ADD24C,1.700000*%
%ADD25O,2.100000X2.100000*%
%ADD26R,2.100000X2.100000*%
%ADD27R,4.150000X2.900000*%
%ADD28C,1.900000*%
%ADD29R,1.650000X1.900000*%
%ADD30R,1.900000X1.700000*%
%ADD31R,2.900000X4.150000*%
%ADD32C,1.650000*%
%ADD33R,1.700000X1.900000*%
G04 APERTURE END LIST*
D10*
D11*
X86629761Y-103901190D02*
X84629761Y-103901190D01*
X85296428Y-102948809D02*
X86629761Y-102948809D01*
X85486904Y-102948809D02*
X85391666Y-102853571D01*
X85296428Y-102663095D01*
X85296428Y-102377380D01*
X85391666Y-102186904D01*
X85582142Y-102091666D01*
X86629761Y-102091666D01*
X86629761Y-100282142D02*
X84629761Y-100282142D01*
X86534523Y-100282142D02*
X86629761Y-100472619D01*
X86629761Y-100853571D01*
X86534523Y-101044047D01*
X86439285Y-101139285D01*
X86248809Y-101234523D01*
X85677380Y-101234523D01*
X85486904Y-101139285D01*
X85391666Y-101044047D01*
X85296428Y-100853571D01*
X85296428Y-100472619D01*
X85391666Y-100282142D01*
X86629761Y-98377380D02*
X86629761Y-99329761D01*
X84629761Y-99329761D01*
X86629761Y-97710714D02*
X85296428Y-97710714D01*
X84629761Y-97710714D02*
X84725000Y-97805952D01*
X84820238Y-97710714D01*
X84725000Y-97615476D01*
X84629761Y-97710714D01*
X84820238Y-97710714D01*
X85296428Y-95901190D02*
X86915476Y-95901190D01*
X87105952Y-95996428D01*
X87201190Y-96091666D01*
X87296428Y-96282142D01*
X87296428Y-96567857D01*
X87201190Y-96758333D01*
X86534523Y-95901190D02*
X86629761Y-96091666D01*
X86629761Y-96472619D01*
X86534523Y-96663095D01*
X86439285Y-96758333D01*
X86248809Y-96853571D01*
X85677380Y-96853571D01*
X85486904Y-96758333D01*
X85391666Y-96663095D01*
X85296428Y-96472619D01*
X85296428Y-96091666D01*
X85391666Y-95901190D01*
X86629761Y-94948809D02*
X84629761Y-94948809D01*
X86629761Y-94091666D02*
X85582142Y-94091666D01*
X85391666Y-94186904D01*
X85296428Y-94377380D01*
X85296428Y-94663095D01*
X85391666Y-94853571D01*
X85486904Y-94948809D01*
X85296428Y-93425000D02*
X85296428Y-92663095D01*
X84629761Y-93139285D02*
X86344047Y-93139285D01*
X86534523Y-93044047D01*
X86629761Y-92853571D01*
X86629761Y-92663095D01*
D12*
X70966499Y-61671897D03*
D13*
X64666499Y-61671897D03*
X64666499Y-63971897D03*
X64666499Y-59371897D03*
D14*
X70483499Y-60147897D03*
X71499499Y-60147897D03*
X70483499Y-61163897D03*
X71499499Y-61163897D03*
X70483499Y-62179897D03*
X71499499Y-62179897D03*
X71499499Y-63195897D03*
X70483499Y-63195897D03*
D15*
X88900000Y-60452000D03*
D16*
X88900000Y-62992000D03*
X88900000Y-65532000D03*
X88900000Y-68072000D03*
X88900000Y-80645000D03*
X88900000Y-78105000D03*
X88900000Y-75565000D03*
D15*
X88900000Y-73025000D03*
D17*
X66675000Y-86380000D03*
X66675000Y-88880000D03*
X71140000Y-104902000D03*
X73640000Y-104902000D03*
X69870000Y-80010000D03*
X72370000Y-80010000D03*
X54102000Y-98278000D03*
X54102000Y-95778000D03*
D18*
X78152000Y-73218000D03*
X78152000Y-74168000D03*
X78152000Y-75118000D03*
X80852000Y-75118000D03*
X80852000Y-73218000D03*
X80852000Y-74168000D03*
D19*
X59202000Y-53848000D03*
X61702000Y-53848000D03*
D20*
X62912982Y-82604168D03*
X63862982Y-82604168D03*
X61962982Y-82604168D03*
X61962982Y-79904168D03*
X62912982Y-79904168D03*
X63862982Y-79904168D03*
D21*
X74675000Y-85090000D03*
X69215000Y-85090000D03*
D22*
X92000000Y-53000000D03*
X92000000Y-133000000D03*
X52000000Y-53000000D03*
X52000000Y-133000000D03*
D23*
X58570000Y-118110000D03*
X58570000Y-122610000D03*
X52070000Y-118110000D03*
X52070000Y-122610000D03*
D19*
X81768000Y-109982000D03*
X79268000Y-109982000D03*
D24*
X80202594Y-114107406D03*
D10*
G36*
X80131883Y-115380198D02*
X78929802Y-114178117D01*
X80273305Y-112834614D01*
X81475386Y-114036695D01*
X80131883Y-115380198D01*
X80131883Y-115380198D01*
G37*
D24*
X78293406Y-116016594D03*
D10*
G36*
X78222695Y-117289386D02*
X77020614Y-116087305D01*
X78364117Y-114743802D01*
X79566198Y-115945883D01*
X78222695Y-117289386D01*
X78222695Y-117289386D01*
G37*
D25*
X88900000Y-114300000D03*
X88900000Y-116840000D03*
X88900000Y-119380000D03*
X88900000Y-121920000D03*
X88900000Y-124460000D03*
D26*
X88900000Y-127000000D03*
D27*
X72975000Y-93980000D03*
X66725000Y-93980000D03*
D24*
X81991044Y-94633034D03*
D10*
G36*
X81920333Y-95905826D02*
X80718252Y-94703745D01*
X82061755Y-93360242D01*
X83263836Y-94562323D01*
X81920333Y-95905826D01*
X81920333Y-95905826D01*
G37*
D24*
X80081856Y-96542222D03*
D10*
G36*
X80011145Y-97815014D02*
X78809064Y-96612933D01*
X80152567Y-95269430D01*
X81354648Y-96471511D01*
X80011145Y-97815014D01*
X80011145Y-97815014D01*
G37*
D28*
X82076176Y-102278854D03*
D10*
G36*
X80732673Y-102278854D02*
X82076176Y-100935351D01*
X83419679Y-102278854D01*
X82076176Y-103622357D01*
X80732673Y-102278854D01*
X80732673Y-102278854D01*
G37*
D28*
X79742724Y-99945402D03*
D10*
G36*
X78399221Y-99945402D02*
X79742724Y-98601899D01*
X81086227Y-99945402D01*
X79742724Y-101288905D01*
X78399221Y-99945402D01*
X78399221Y-99945402D01*
G37*
D29*
X61976000Y-85110000D03*
X61976000Y-87610000D03*
D30*
X69295000Y-74930000D03*
X66595000Y-74930000D03*
X69295000Y-72390000D03*
X66595000Y-72390000D03*
D31*
X57658000Y-82473000D03*
X57658000Y-88723000D03*
D23*
X66040000Y-112268000D03*
X68580000Y-112268000D03*
X71120000Y-112268000D03*
X73660000Y-112268000D03*
X73660000Y-126468000D03*
X71120000Y-126468000D03*
X68580000Y-126468000D03*
X66040000Y-126468000D03*
D29*
X66675000Y-82530000D03*
X66675000Y-80030000D03*
D24*
X78293406Y-121350594D03*
D10*
G36*
X78222695Y-122623386D02*
X77020614Y-121421305D01*
X78364117Y-120077802D01*
X79566198Y-121279883D01*
X78222695Y-122623386D01*
X78222695Y-122623386D01*
G37*
D24*
X80202594Y-119441406D03*
D10*
G36*
X80131883Y-120714198D02*
X78929802Y-119512117D01*
X80273305Y-118168614D01*
X81475386Y-119370695D01*
X80131883Y-120714198D01*
X80131883Y-120714198D01*
G37*
D19*
X61324719Y-65154507D03*
X58824719Y-65154507D03*
D29*
X83566000Y-74188000D03*
X83566000Y-76688000D03*
D32*
X78364117Y-126359883D03*
D10*
G36*
X78275729Y-127614998D02*
X77109002Y-126448271D01*
X78452505Y-125104768D01*
X79619232Y-126271495D01*
X78275729Y-127614998D01*
X78275729Y-127614998D01*
G37*
D32*
X80131883Y-124592117D03*
D10*
G36*
X80043495Y-125847232D02*
X78876768Y-124680505D01*
X80220271Y-123337002D01*
X81386998Y-124503729D01*
X80043495Y-125847232D01*
X80043495Y-125847232D01*
G37*
D33*
X61466499Y-58971897D03*
X61466499Y-61671897D03*
X58926499Y-61671897D03*
X58926499Y-58971897D03*
D30*
X73740000Y-107442000D03*
X71040000Y-107442000D03*
X73834000Y-109982000D03*
X76534000Y-109982000D03*
D19*
X72370000Y-89535000D03*
X69870000Y-89535000D03*
M02*
